<?xml version="1.0" encoding="UTF-8"?>
<svg id="Layer_1" data-name="Layer 1" xmlns="http://www.w3.org/2000/svg" viewBox="0 0 870.13 241.08">
  <defs>
    <style>
      .cls-1 {
        fill: #1099da;
      }

      .cls-2 {
        fill: #fff;
      }

      .cls-3 {
        fill: #151f38;
      }
    </style>
  </defs>
  <g>
    <path class="cls-1" d="M104.49,20.79h-42.55v87.19h-19.31V20.79H0V1.49h104.49v19.31Z"/>
    <path class="cls-1" d="M214.92,107.98h-69.66c-2.67,0-5.6-.47-8.76-1.41-3.17-.94-6.1-2.49-8.8-4.64-2.7-2.15-4.95-4.95-6.76-8.39-1.81-3.44-2.71-7.66-2.71-12.66V11.21c0-1.34.25-2.6.74-3.79.49-1.19,1.18-2.23,2.04-3.12.87-.89,1.89-1.58,3.08-2.08,1.19-.49,2.48-.74,3.86-.74h86.96v19.31h-77.38v60.08c0,2.53.67,4.46,2,5.79,1.34,1.34,3.29,2,5.87,2h69.51v19.31ZM206.23,64.46h-60.97v-19.46h60.97v19.46Z"/>
    <path class="cls-1" d="M253.02,107.98h-19.31V1.49h19.31v106.49ZM345.18,107.98h-27.4l-43.45-43.52h-13.59v-19.46h13.59L317.78,1.49h27.4l-54.73,53.25,54.73,53.25Z"/>
    <path d="M463.71,99.74c0,1.39-.26,2.67-.78,3.86-.52,1.19-1.21,2.22-2.08,3.08-.87.87-1.89,1.55-3.08,2.04-1.19.5-2.45.74-3.79.74-1.19,0-2.39-.22-3.6-.67-1.21-.45-2.29-1.16-3.23-2.15l-70.55-73.67v75.01h-19.31V9.73c0-1.98.56-3.77,1.67-5.38,1.11-1.61,2.54-2.81,4.27-3.6,1.83-.74,3.71-.93,5.64-.56,1.93.37,3.59,1.28,4.98,2.71l70.55,73.6V1.49h19.31v98.25Z"/>
    <path d="M505.59,107.98h-19.31V1.49h19.31v106.49Z"/>
    <path d="M547.62,107.98h-19.31V1.49h19.31v106.49ZM639.79,107.98h-27.4l-43.44-43.52h-13.59v-19.46h13.59L612.38,1.49h27.4l-54.73,53.25,54.73,53.25Z"/>
    <path d="M760.32,64.91c0,6.49-1.11,12.45-3.34,17.9-2.23,5.45-5.32,10.15-9.28,14.11-3.96,3.96-8.65,7.04-14.07,9.25-5.42,2.2-11.33,3.3-17.71,3.3h-26.14c-6.39,0-12.3-1.1-17.75-3.3-5.45-2.2-10.15-5.28-14.11-9.25-3.96-3.96-7.07-8.66-9.32-14.11-2.25-5.45-3.38-11.41-3.38-17.9v-20.35c0-6.44,1.13-12.39,3.38-17.86,2.25-5.47,5.36-10.17,9.32-14.11,3.96-3.94,8.66-7.02,14.11-9.25C677.46,1.11,683.38,0,689.77,0h26.14c6.39,0,12.29,1.11,17.71,3.34,5.42,2.23,10.11,5.31,14.07,9.25,3.96,3.94,7.06,8.64,9.28,14.11,2.23,5.47,3.34,11.43,3.34,17.86v20.35ZM741.01,44.56c0-3.81-.61-7.27-1.82-10.36-1.21-3.09-2.92-5.74-5.12-7.95-2.2-2.2-4.85-3.91-7.95-5.12-3.09-1.21-6.5-1.82-10.21-1.82h-26.14c-3.76,0-7.19.61-10.29,1.82-3.09,1.21-5.75,2.92-7.98,5.12-2.23,2.2-3.95,4.85-5.16,7.95-1.21,3.09-1.82,6.55-1.82,10.36v20.35c0,3.81.61,7.27,1.82,10.36,1.21,3.09,2.93,5.74,5.16,7.95,2.23,2.2,4.89,3.91,7.98,5.12,3.09,1.21,6.52,1.82,10.29,1.82h25.99c3.76,0,7.19-.61,10.29-1.82,3.09-1.21,5.75-2.92,7.98-5.12,2.23-2.2,3.95-4.85,5.16-7.95,1.21-3.09,1.82-6.55,1.82-10.36v-20.35Z"/>
    <path d="M869.34,7.28c.74,1.73.97,3.55.67,5.46-.3,1.91-1.09,3.53-2.38,4.86l-63.72,71.07h65.28v19.31h-87.04c-1.88,0-3.63-.53-5.24-1.6-1.61-1.06-2.81-2.46-3.6-4.2-.84-1.73-1.1-3.54-.78-5.42.32-1.88,1.1-3.51,2.34-4.9l63.87-71.07h-65.43V1.49h87.19c1.88,0,3.63.53,5.24,1.6,1.61,1.06,2.81,2.46,3.6,4.2Z"/>
  </g>
  <rect class="cls-3" x="92.79" y="143.61" width="683.33" height="97.47" rx="42.52" ry="42.52"/>
  <g>
    <path class="cls-2" d="M140.67,215.03c-2.99-1.31-5.34-3.16-7.04-5.56-1.71-2.4-2.56-5.2-2.56-8.41h9.77c.21,2.4,1.16,4.38,2.84,5.92,1.68,1.55,4.04,2.32,7.08,2.32s5.6-.76,7.37-2.28c1.76-1.52,2.64-3.48,2.64-5.88,0-1.87-.55-3.39-1.64-4.56-1.09-1.17-2.46-2.08-4.08-2.72-1.63-.64-3.88-1.33-6.77-2.08-3.63-.96-6.58-1.93-8.85-2.92-2.27-.99-4.2-2.52-5.8-4.6s-2.4-4.86-2.4-8.33c0-3.2.8-6,2.4-8.41s3.84-4.24,6.72-5.52c2.88-1.28,6.22-1.92,10.01-1.92,5.39,0,9.81,1.35,13.25,4.04,3.44,2.7,5.35,6.39,5.72,11.09h-10.09c-.16-2.03-1.12-3.76-2.88-5.2-1.76-1.44-4.08-2.16-6.96-2.16-2.62,0-4.75.67-6.4,2-1.65,1.33-2.48,3.26-2.48,5.76,0,1.71.52,3.11,1.56,4.2,1.04,1.09,2.36,1.96,3.96,2.6,1.6.64,3.79,1.33,6.56,2.08,3.68,1.01,6.68,2.03,9.01,3.04,2.32,1.01,4.3,2.58,5.92,4.68,1.63,2.11,2.44,4.92,2.44,8.45,0,2.83-.76,5.5-2.28,8.01-1.52,2.51-3.74,4.52-6.64,6.04-2.91,1.52-6.34,2.28-10.29,2.28-3.74,0-7.1-.65-10.09-1.96Z"/>
    <path class="cls-2" d="M243.5,173.76c2.75,1.44,4.91,3.58,6.48,6.4,1.57,2.83,2.36,6.24,2.36,10.25v26.02h-9.05v-24.66c0-3.95-.99-6.98-2.96-9.09-1.97-2.11-4.67-3.16-8.09-3.16s-6.12,1.05-8.12,3.16c-2,2.11-3,5.14-3,9.09v24.66h-9.05v-24.66c0-3.95-.99-6.98-2.96-9.09-1.97-2.11-4.67-3.16-8.09-3.16s-6.12,1.05-8.13,3.16c-2,2.11-3,5.14-3,9.09v24.66h-9.13v-44.11h9.13v5.04c1.49-1.81,3.39-3.23,5.68-4.24,2.29-1.01,4.75-1.52,7.37-1.52,3.52,0,6.67.75,9.45,2.24,2.77,1.5,4.91,3.66,6.4,6.48,1.33-2.67,3.42-4.79,6.25-6.36,2.83-1.57,5.87-2.36,9.13-2.36,3.47,0,6.58.72,9.33,2.16Z"/>
    <path class="cls-2" d="M263.67,182.41c1.84-3.42,4.35-6.07,7.53-7.97,3.17-1.89,6.68-2.84,10.53-2.84,3.47,0,6.5.68,9.09,2.04,2.59,1.36,4.66,3.06,6.2,5.08v-6.41h9.21v44.11h-9.21v-6.56c-1.55,2.08-3.66,3.82-6.32,5.2-2.67,1.39-5.71,2.08-9.13,2.08-3.79,0-7.26-.97-10.41-2.92-3.15-1.95-5.64-4.67-7.49-8.17-1.84-3.5-2.76-7.46-2.76-11.89s.92-8.35,2.76-11.77ZM295.14,186.41c-1.25-2.24-2.9-3.95-4.92-5.12-2.03-1.17-4.22-1.76-6.56-1.76s-4.54.57-6.57,1.72c-2.03,1.15-3.67,2.83-4.92,5.04-1.25,2.22-1.88,4.84-1.88,7.89s.63,5.71,1.88,8.01c1.25,2.29,2.91,4.04,4.96,5.24,2.05,1.2,4.23,1.8,6.53,1.8s4.54-.59,6.56-1.76c2.03-1.17,3.67-2.89,4.92-5.16,1.25-2.27,1.88-4.92,1.88-7.97s-.63-5.68-1.88-7.93Z"/>
    <path class="cls-2" d="M332.68,173.48c2.21-1.25,4.84-1.88,7.89-1.88v9.45h-2.32c-3.58,0-6.29.91-8.13,2.72-1.84,1.82-2.76,4.96-2.76,9.45v23.22h-9.13v-44.11h9.13v6.41c1.33-2.24,3.11-3.99,5.32-5.24Z"/>
    <path class="cls-2" d="M359.62,179.77v24.42c0,1.66.39,2.84,1.16,3.56.77.72,2.09,1.08,3.96,1.08h5.6v7.61h-7.21c-4.11,0-7.26-.96-9.45-2.88-2.19-1.92-3.28-5.04-3.28-9.37v-24.42h-5.2v-7.45h5.2v-10.97h9.21v10.97h10.73v7.45h-10.73Z"/>
    <path class="cls-2" d="M408.69,209.07h18.81v7.37h-27.94v-55.64h9.13v48.27Z"/>
    <path class="cls-2" d="M475.22,197.78h-33.7c.27,3.52,1.57,6.35,3.92,8.49s5.23,3.2,8.65,3.2c4.91,0,8.38-2.05,10.41-6.16h9.85c-1.33,4.06-3.75,7.38-7.25,9.97-3.5,2.59-7.83,3.88-13.01,3.88-4.22,0-7.99-.95-11.33-2.84-3.34-1.89-5.95-4.56-7.85-8s-2.84-7.43-2.84-11.97.92-8.53,2.76-11.97c1.84-3.44,4.43-6.1,7.77-7.97,3.33-1.87,7.17-2.8,11.49-2.8s7.87.91,11.13,2.72c3.25,1.81,5.79,4.36,7.6,7.65s2.72,7.06,2.72,11.33c0,1.66-.11,3.15-.32,4.48ZM466.01,190.41c-.05-3.36-1.25-6.06-3.6-8.08s-5.26-3.04-8.73-3.04c-3.15,0-5.84,1-8.09,3-2.24,2-3.58,4.71-4,8.12h24.42Z"/>
    <path class="cls-2" d="M484.22,182.41c1.84-3.42,4.35-6.07,7.53-7.97,3.17-1.89,6.68-2.84,10.53-2.84,3.47,0,6.5.68,9.09,2.04,2.59,1.36,4.66,3.06,6.2,5.08v-6.41h9.21v44.11h-9.21v-6.56c-1.55,2.08-3.66,3.82-6.32,5.2-2.67,1.39-5.71,2.08-9.13,2.08-3.79,0-7.26-.97-10.41-2.92-3.15-1.95-5.64-4.67-7.49-8.17-1.84-3.5-2.76-7.46-2.76-11.89s.92-8.35,2.76-11.77ZM515.69,186.41c-1.25-2.24-2.9-3.95-4.92-5.12-2.03-1.17-4.22-1.76-6.56-1.76s-4.54.57-6.57,1.72c-2.03,1.15-3.67,2.83-4.92,5.04-1.25,2.22-1.88,4.84-1.88,7.89s.63,5.71,1.88,8.01c1.25,2.29,2.91,4.04,4.96,5.24,2.05,1.2,4.23,1.8,6.53,1.8s4.54-.59,6.56-1.76c2.03-1.17,3.67-2.89,4.92-5.16,1.25-2.27,1.88-4.92,1.88-7.97s-.63-5.68-1.88-7.93Z"/>
    <path class="cls-2" d="M553.23,173.48c2.21-1.25,4.84-1.88,7.89-1.88v9.45h-2.32c-3.58,0-6.29.91-8.13,2.72-1.84,1.82-2.76,4.96-2.76,9.45v23.22h-9.13v-44.11h9.13v6.41c1.33-2.24,3.11-3.99,5.32-5.24Z"/>
    <path class="cls-2" d="M601.1,173.76c2.75,1.44,4.9,3.58,6.44,6.4,1.55,2.83,2.32,6.24,2.32,10.25v26.02h-9.05v-24.66c0-3.95-.99-6.98-2.96-9.09-1.97-2.11-4.67-3.16-8.09-3.16s-6.12,1.05-8.12,3.16c-2,2.11-3,5.14-3,9.09v24.66h-9.13v-44.11h9.13v5.04c1.49-1.81,3.4-3.23,5.72-4.24,2.32-1.01,4.79-1.52,7.41-1.52,3.47,0,6.58.72,9.33,2.16Z"/>
    <path class="cls-2" d="M621.96,164.8c-1.12-1.12-1.68-2.51-1.68-4.16s.56-3.04,1.68-4.16,2.51-1.68,4.16-1.68,2.96.56,4.08,1.68c1.12,1.12,1.68,2.51,1.68,4.16s-.56,3.04-1.68,4.16c-1.12,1.12-2.48,1.68-4.08,1.68s-3.04-.56-4.16-1.68ZM630.6,172.32v44.11h-9.13v-44.11h9.13Z"/>
    <path class="cls-2" d="M674.19,173.76c2.75,1.44,4.9,3.58,6.44,6.4,1.55,2.83,2.32,6.24,2.32,10.25v26.02h-9.05v-24.66c0-3.95-.99-6.98-2.96-9.09-1.97-2.11-4.67-3.16-8.09-3.16s-6.12,1.05-8.12,3.16c-2,2.11-3,5.14-3,9.09v24.66h-9.13v-44.11h9.13v5.04c1.49-1.81,3.4-3.23,5.72-4.24,2.32-1.01,4.79-1.52,7.41-1.52,3.47,0,6.58.72,9.33,2.16Z"/>
    <path class="cls-2" d="M721.42,173.64c2.64,1.36,4.71,3.06,6.2,5.08v-6.41h9.21v44.83c0,4.05-.85,7.67-2.56,10.85-1.71,3.17-4.18,5.67-7.41,7.49-3.23,1.81-7.08,2.72-11.57,2.72-5.98,0-10.94-1.4-14.89-4.2-3.95-2.8-6.19-6.6-6.72-11.41h9.05c.69,2.29,2.17,4.15,4.44,5.56,2.27,1.41,4.98,2.12,8.12,2.12,3.68,0,6.66-1.12,8.93-3.36,2.27-2.24,3.4-5.5,3.4-9.77v-7.37c-1.55,2.08-3.64,3.83-6.28,5.24-2.64,1.41-5.64,2.12-9.01,2.12-3.84,0-7.35-.97-10.53-2.92-3.18-1.95-5.68-4.67-7.53-8.17-1.84-3.5-2.76-7.46-2.76-11.89s.92-8.35,2.76-11.77c1.84-3.42,4.35-6.07,7.53-7.97,3.17-1.89,6.68-2.84,10.53-2.84,3.42,0,6.44.68,9.09,2.04ZM725.75,186.41c-1.25-2.24-2.9-3.95-4.92-5.12-2.03-1.17-4.22-1.76-6.56-1.76s-4.54.57-6.57,1.72c-2.03,1.15-3.67,2.83-4.92,5.04-1.25,2.22-1.88,4.84-1.88,7.89s.63,5.71,1.88,8.01c1.25,2.29,2.91,4.04,4.96,5.24,2.05,1.2,4.23,1.8,6.53,1.8s4.54-.59,6.56-1.76c2.03-1.17,3.67-2.89,4.92-5.16,1.25-2.27,1.88-4.92,1.88-7.97s-.63-5.68-1.88-7.93Z"/>
  </g>
</svg>