<?xml version="1.0" encoding="utf-8"?>
<!-- Generator: Adobe Illustrator 16.0.0, SVG Export Plug-In . SVG Version: 6.00 Build 0)  -->
<!DOCTYPE svg PUBLIC "-//W3C//DTD SVG 1.1//EN" "http://www.w3.org/Graphics/SVG/1.1/DTD/svg11.dtd">
<svg version="1.1" id="Layer_1" xmlns="http://www.w3.org/2000/svg" xmlns:xlink="http://www.w3.org/1999/xlink" x="0px" y="0px"
	 width="880.739px" height="251.799px" viewBox="0 0 880.739 251.799" enable-background="new 0 0 880.739 251.799"
	 xml:space="preserve">
<g>
	<path fill="#1099DA" d="M110.402,25.694H67.849v87.186H48.54V25.694H5.913V6.386h104.49V25.694z"/>
	<path fill="#1099DA" d="M220.833,112.88h-69.66c-2.673,0-5.595-0.47-8.763-1.411c-3.169-0.939-6.102-2.487-8.8-4.642
		c-2.699-2.153-4.951-4.95-6.758-8.392c-1.808-3.44-2.711-7.661-2.711-12.662v-69.66c0-1.337,0.248-2.599,0.743-3.788
		c0.495-1.188,1.176-2.228,2.042-3.119c0.866-0.891,1.894-1.584,3.082-2.079c1.188-0.495,2.475-0.743,3.862-0.743h86.963v19.309
		H143.45v60.08c0,2.525,0.668,4.456,2.005,5.793c1.337,1.336,3.292,2.005,5.867,2.005h69.511V112.88z M212.144,69.361h-60.971
		V49.904h60.971V69.361z"/>
	<path fill="#1099DA" d="M258.93,112.88h-19.308V6.386h19.308V112.88z M351.092,112.88h-27.402l-43.445-43.519h-13.59V49.904h13.59
		l43.445-43.519h27.402l-54.732,53.247L351.092,112.88z"/>
	<path d="M469.618,104.637c0,1.387-0.26,2.674-0.78,3.861c-0.52,1.188-1.214,2.217-2.079,3.082
		c-0.867,0.867-1.894,1.547-3.082,2.042s-2.451,0.743-3.787,0.743c-1.188,0-2.39-0.223-3.603-0.668
		c-1.214-0.446-2.29-1.163-3.23-2.154l-70.551-73.67v75.007h-19.309V14.629c0-1.979,0.557-3.775,1.671-5.384
		c1.114-1.608,2.537-2.809,4.271-3.602c1.831-0.743,3.713-0.929,5.644-0.557c1.931,0.371,3.589,1.275,4.976,2.71l70.552,73.596
		V6.386h19.309V104.637z"/>
	<path d="M511.503,112.88h-19.309V6.386h19.309V112.88z"/>
	<path d="M553.536,112.88h-19.309V6.386h19.309V112.88z M645.698,112.88h-27.403l-43.444-43.519H561.26V49.904h13.591l43.444-43.519
		h27.403l-54.732,53.247L645.698,112.88z"/>
	<path d="M766.229,69.807c0,6.486-1.114,12.452-3.342,17.897c-2.228,5.447-5.322,10.15-9.283,14.11
		c-3.961,3.962-8.651,7.044-14.073,9.246c-5.421,2.202-11.325,3.305-17.712,3.305h-26.141c-6.387,0-12.304-1.103-17.749-3.305
		c-5.447-2.202-10.15-5.284-14.11-9.246c-3.962-3.96-7.068-8.663-9.32-14.11c-2.253-5.445-3.379-11.411-3.379-17.897V49.459
		c0-6.436,1.126-12.39,3.379-17.861c2.252-5.47,5.358-10.174,9.32-14.11c3.96-3.936,8.663-7.018,14.11-9.246
		c5.445-2.228,11.362-3.342,17.749-3.342h26.141c6.387,0,12.291,1.114,17.712,3.342c5.422,2.228,10.112,5.31,14.073,9.246
		c3.961,3.936,7.056,8.641,9.283,14.11c2.228,5.471,3.342,11.425,3.342,17.861V69.807z M746.921,49.459
		c0-3.812-0.606-7.265-1.819-10.36c-1.214-3.094-2.922-5.743-5.124-7.946c-2.204-2.203-4.854-3.911-7.946-5.125
		c-3.095-1.212-6.498-1.819-10.212-1.819h-26.141c-3.764,0-7.192,0.607-10.286,1.819c-3.095,1.214-5.755,2.922-7.983,5.125
		c-2.228,2.203-3.948,4.853-5.161,7.946c-1.214,3.095-1.819,6.548-1.819,10.36v20.348c0,3.813,0.605,7.267,1.819,10.36
		c1.213,3.095,2.934,5.743,5.161,7.945c2.229,2.204,4.889,3.912,7.983,5.125c3.094,1.214,6.522,1.819,10.286,1.819h25.992
		c3.762,0,7.191-0.605,10.286-1.819c3.093-1.213,5.755-2.921,7.983-5.125c2.228-2.202,3.947-4.851,5.161-7.945
		c1.213-3.094,1.819-6.547,1.819-10.36V49.459z"/>
	<path d="M875.249,12.178c0.743,1.733,0.966,3.553,0.669,5.458c-0.298,1.906-1.09,3.527-2.377,4.864l-63.719,71.071h65.278v19.309
		h-87.038c-1.882,0-3.627-0.531-5.235-1.597c-1.609-1.064-2.811-2.462-3.602-4.196c-0.843-1.732-1.103-3.539-0.78-5.421
		c0.322-1.881,1.102-3.515,2.34-4.901l63.867-71.071h-65.427V6.386h87.187c1.881,0,3.626,0.532,5.235,1.597
		C873.256,9.047,874.457,10.446,875.249,12.178z"/>
</g>
<g>
	<path fill="#151F38" d="M713.771,203.464c0,23.386-19.134,42.52-42.52,42.52h-456.17c-23.386,0-42.52-19.134-42.52-42.52v-12.431
		c0-23.386,19.134-42.52,42.52-42.52h456.17c23.386,0,42.52,19.134,42.52,42.52V203.464z"/>
</g>
<g>
	<path fill="#FFFFFF" d="M245.563,171.42v16.331h19.213v7.445h-19.213v17.052h21.615v7.445h-30.741v-55.719h30.741v7.445H245.563z"
		/>
	<path fill="#FFFFFF" d="M312.249,186.871v7.686h-32.903v-7.686H312.249z"/>
	<path fill="#FFFFFF" d="M334.344,160.453v59.241h-9.127v-59.241H334.344z"/>
	<path fill="#FFFFFF" d="M386.459,201.041h-33.704c0.267,3.522,1.574,6.353,3.923,8.486c2.349,2.135,5.23,3.202,8.646,3.202
		c4.909,0,8.378-2.054,10.407-6.164h9.847c-1.335,4.057-3.75,7.379-7.245,9.967c-3.496,2.589-7.833,3.883-13.009,3.883
		c-4.217,0-7.993-0.947-11.328-2.842c-3.336-1.895-5.951-4.563-7.846-8.006s-2.842-7.432-2.842-11.969
		c0-4.535,0.921-8.525,2.762-11.968c1.842-3.442,4.43-6.097,7.766-7.966c3.335-1.867,7.165-2.802,11.488-2.802
		c4.163,0,7.871,0.908,11.128,2.722c3.254,1.815,5.79,4.363,7.604,7.646s2.723,7.059,2.723,11.328
		C386.779,198.212,386.671,199.708,386.459,201.041z M377.252,193.675c-0.054-3.362-1.254-6.057-3.603-8.085
		c-2.349-2.027-5.257-3.042-8.726-3.042c-3.149,0-5.844,1-8.086,3.002c-2.241,2.001-3.576,4.711-4.003,8.125H377.252z"/>
	<path fill="#FFFFFF" d="M395.464,185.67c1.842-3.415,4.35-6.07,7.525-7.966c3.175-1.894,6.685-2.842,10.527-2.842
		c3.469,0,6.497,0.681,9.087,2.041c2.588,1.361,4.655,3.057,6.204,5.084v-6.404h9.206v44.11h-9.206v-6.564
		c-1.549,2.081-3.656,3.816-6.324,5.203c-2.67,1.388-5.712,2.082-9.127,2.082c-3.79,0-7.259-0.974-10.407-2.922
		c-3.149-1.948-5.644-4.67-7.485-8.166c-1.841-3.495-2.762-7.458-2.762-11.889C392.702,193.009,393.623,189.086,395.464,185.67z
		 M426.926,189.673c-1.254-2.242-2.896-3.949-4.923-5.124c-2.029-1.173-4.217-1.761-6.564-1.761c-2.35,0-4.537,0.574-6.565,1.721
		c-2.028,1.148-3.67,2.83-4.923,5.044c-1.255,2.215-1.882,4.843-1.882,7.885c0,3.043,0.627,5.712,1.882,8.006
		c1.253,2.296,2.908,4.043,4.963,5.244c2.055,1.2,4.229,1.801,6.525,1.801c2.348,0,4.535-0.587,6.564-1.761
		c2.027-1.174,3.669-2.895,4.923-5.164c1.254-2.268,1.882-4.924,1.882-7.966S428.18,191.915,426.926,189.673z"/>
	<path fill="#FFFFFF" d="M464.472,176.744c2.214-1.253,4.844-1.881,7.886-1.881v9.446h-2.321c-3.577,0-6.285,0.908-8.126,2.722
		c-1.842,1.815-2.762,4.964-2.762,9.447v23.216h-9.127v-44.11h9.127v6.404C460.481,179.747,462.257,177.999,464.472,176.744z"/>
	<path fill="#FFFFFF" d="M512.344,177.024c2.748,1.441,4.896,3.576,6.444,6.404c1.548,2.83,2.322,6.245,2.322,10.247v26.019h-9.047
		v-24.657c0-3.949-0.988-6.978-2.962-9.086c-1.975-2.108-4.671-3.162-8.086-3.162c-3.416,0-6.124,1.054-8.125,3.162
		c-2.002,2.108-3.002,5.137-3.002,9.086v24.657h-9.127v-44.11h9.127v5.043c1.493-1.813,3.402-3.229,5.724-4.243
		c2.321-1.013,4.79-1.521,7.405-1.521C506.486,174.863,509.595,175.583,512.344,177.024z"/>
	<path fill="#FFFFFF" d="M533.197,168.058c-1.121-1.121-1.681-2.508-1.681-4.163c0-1.653,0.56-3.042,1.681-4.163
		c1.121-1.12,2.508-1.681,4.163-1.681c1.601,0,2.962,0.561,4.083,1.681c1.12,1.121,1.681,2.51,1.681,4.163
		c0,1.655-0.561,3.042-1.681,4.163c-1.121,1.121-2.482,1.681-4.083,1.681C535.705,169.739,534.318,169.179,533.197,168.058z
		 M541.844,175.583v44.11h-9.127v-44.11H541.844z"/>
	<path fill="#FFFFFF" d="M585.433,177.024c2.748,1.441,4.896,3.576,6.444,6.404c1.548,2.83,2.322,6.245,2.322,10.247v26.019h-9.047
		v-24.657c0-3.949-0.988-6.978-2.962-9.086c-1.975-2.108-4.671-3.162-8.086-3.162c-3.416,0-6.124,1.054-8.125,3.162
		c-2.002,2.108-3.002,5.137-3.002,9.086v24.657h-9.127v-44.11h9.127v5.043c1.493-1.813,3.402-3.229,5.724-4.243
		c2.321-1.013,4.79-1.521,7.405-1.521C579.575,174.863,582.684,175.583,585.433,177.024z"/>
	<path fill="#FFFFFF" d="M632.665,176.904c2.642,1.361,4.709,3.057,6.204,5.084v-6.404h9.206v44.831
		c0,4.055-0.854,7.671-2.562,10.848c-1.709,3.175-4.177,5.67-7.405,7.485c-3.229,1.813-7.085,2.722-11.568,2.722
		c-5.978,0-10.941-1.401-14.89-4.203c-3.95-2.802-6.192-6.604-6.725-11.408h9.046c0.693,2.294,2.174,4.149,4.443,5.564
		c2.268,1.413,4.976,2.121,8.125,2.121c3.683,0,6.657-1.121,8.927-3.362c2.268-2.241,3.402-5.498,3.402-9.767v-7.365
		c-1.549,2.081-3.643,3.83-6.284,5.243c-2.643,1.414-5.645,2.122-9.007,2.122c-3.843,0-7.353-0.974-10.527-2.922
		c-3.176-1.948-5.684-4.67-7.525-8.166c-1.841-3.495-2.762-7.458-2.762-11.889c0-4.429,0.921-8.352,2.762-11.768
		c1.842-3.415,4.35-6.07,7.525-7.966c3.175-1.894,6.685-2.842,10.527-2.842C626.993,174.863,630.022,175.543,632.665,176.904z
		 M636.987,189.673c-1.254-2.242-2.896-3.949-4.923-5.124c-2.029-1.173-4.217-1.761-6.564-1.761c-2.35,0-4.537,0.574-6.565,1.721
		c-2.028,1.148-3.67,2.83-4.923,5.044c-1.255,2.215-1.882,4.843-1.882,7.885c0,3.043,0.627,5.712,1.882,8.006
		c1.253,2.296,2.908,4.043,4.963,5.244c2.055,1.2,4.229,1.801,6.525,1.801c2.348,0,4.535-0.587,6.564-1.761
		c2.027-1.174,3.669-2.895,4.923-5.164c1.254-2.268,1.882-4.924,1.882-7.966S638.241,191.915,636.987,189.673z"/>
</g>
</svg>
